<svg id="Layer_1" data-name="Layer 1" xmlns="http://www.w3.org/2000/svg" viewBox="0 0 600 600"><defs><style>.cls-1{fill:#e0ff00;}</style></defs><rect class="cls-1" width="600" height="600"/><path d="M75.19,244.81c6.8,0,13.11.61,18.57,3.28,6.55,3.15,10.8,8.25,10.8,17.84,0,10.19-7.52,16.14-13,18.32v.24c10.8,2.43,18,9.47,18,20.15,0,9.1-4.25,15.65-10,19.29C94.37,327.21,87,328.54,79,328.54H48.37V244.81Zm8.74,32.89c2.91-1.82,4.61-4.74,4.61-9.71,0-7.28-5.7-10.8-13.83-10.8H64.15v22.57H74C78.35,279.76,81.38,279.27,83.93,277.7Zm5,36.16c2.79-1.82,4.61-5.58,4.61-9.95a11.46,11.46,0,0,0-5.22-10c-3.16-2.19-6.43-2.67-11.29-2.67H64.15v24.88H77.74C81.75,316.17,85.63,316,88.91,313.86Z" transform="translate(-0.52 0)"/><path d="M135.61,244.81v70.63h29.25v13.1H120V244.81Z" transform="translate(-0.52 0)"/><path d="M191.31,309.25,184,328.54H167.65l32.89-83.85h15.29l32.88,83.85H231.48l-7.28-19.29Zm29-12.62-12.5-33.86L195.2,296.63Z" transform="translate(-0.52 0)"/><path d="M289.79,330c-24.51,0-43.44-16.62-43.44-43.2s19.17-43.2,43.44-43.2c16.38,0,25.85,6.91,29.25,10.31l-5.58,12.87c-2.43-3.16-11.9-9.59-23.79-9.59-14.56,0-27.06,9.59-27.06,29.37,0,18.08,11.28,29.85,28,29.85a31.78,31.78,0,0,0,23.91-10.2l5.58,11.9C315.4,323.2,306.29,330,289.79,330Z" transform="translate(-0.52 0)"/><path d="M344.22,297.72v30.82H328.56V244.81h15.66v33.13l30-33.13H393l-31.19,33.62,33.38,50.11H376.25l-24.39-39Z" transform="translate(-0.52 0)"/><path d="M64,357.23v70.63H93.27V441H48.37V357.23Z" transform="translate(-0.52 0)"/><path d="M115.64,357.23V441H99.86V357.23Z" transform="translate(-0.52 0)"/><path d="M138.29,357.23l21.6,62.26,21.61-62.26h16l-30.94,83.86H152.49l-30.94-83.86Z" transform="translate(-0.52 0)"/><path d="M255.39,357.23v13.11H219.47v20.75h33.85v13H219.47v23.79h36.89V441H203.69V357.23Z" transform="translate(-0.52 0)"/><path d="M321.15,416.57c0,15.54-11.41,25.85-29.13,25.85-14.32,0-24.15-6.67-29.61-13L269.94,418c6.55,7.16,14.44,11,22.33,11s13.1-3.76,13.1-11c0-6.55-4.37-8.74-11.53-11.65l-13.1-5.22c-9.1-3.64-15.17-10.07-15.17-20.26,0-14.57,11.41-24.64,29-24.64,11.89,0,20.51,5,25.49,10.07l-7.53,11.29c-5.34-4.85-11.77-8.37-18.93-8.37-6.92,0-12.38,3.39-12.38,9.58s5.22,8.38,9.59,10.2l14,5.7C316.54,399.58,321.15,406.14,321.15,416.57Z" transform="translate(-0.52 0)"/><path d="M120.46,490.16,98.13,553.75h-11L65.24,490.16h-.36l-4.49,63.23H45.22l6.92-83.74H72.89l20.26,60.07h.25l20.5-60.07h20l7.16,83.74H125.55l-4.85-63.23Z" transform="translate(-0.52 0)"/><path d="M169.36,534.09l-7.28,19.3H145.7l32.88-83.86h15.3l32.88,83.86H209.53l-7.28-19.3Zm29-12.62-12.5-33.86-12.62,33.86Z" transform="translate(-0.52 0)"/><path d="M216.64,482.4V469.65h61.65V482.4H255.35v71H239.7v-71Z" transform="translate(-0.52 0)"/><path d="M281.22,482.4V469.65h61.65V482.4H319.93v71H304.28v-71Z" transform="translate(-0.52 0)"/><path d="M401,469.65v13.11H365v20.75h33.86v13H365v23.78h36.89v13.11H349.25V469.65Z" transform="translate(-0.52 0)"/><path d="M429.66,519.41v34H413.88V469.65h26.95c8.85,0,15.89,2,21.11,6a22.94,22.94,0,0,1,9,18.45c0,14.44-7.89,20.26-18.08,23.42l22.57,35.92H457l-19.79-34Zm20.15-15c3.15-2.3,4.85-5.1,4.85-9.83s-1.7-7.64-4.85-9.83-6.92-2.67-12-2.67h-8.25v25h8.25C442.89,507,446.77,506.67,449.81,504.36Z" transform="translate(-0.52 0)"/></svg>