<?xml version="1.0" encoding="UTF-8"?>
<svg width="121px" height="44px" viewBox="0 0 691 248" version="1.1" xmlns="http://www.w3.org/2000/svg" xmlns:xlink="http://www.w3.org/1999/xlink">
    <!-- Generator: Sketch 42 (36781) - http://www.bohemiancoding.com/sketch -->
    <title>Logo_Blue</title>
    <desc>Created with Sketch.</desc>
    <defs></defs>
    <g id="Melody-Header" stroke="none" stroke-width="1" fill="none" fill-rule="evenodd">
        <g id="Logo_Blue">
            <g id="logo">
                <path d="M458.599221,203.590396 C456.782641,206.147819 455.881002,209.499179 455.881002,213.827466 C455.881002,223.261745 459.323489,227.981098 466.048828,227.981098 C469.135094,227.981098 471.680376,226.613105 473.492522,224.259332 C475.303191,221.896704 476.210742,218.341694 476.210742,213.827466 C476.210742,204.567323 472.765299,200.054571 466.048828,200.054571 C462.962563,200.054571 460.412846,201.232195 458.599221,203.590396 M439.899822,196.312145 L435.721243,203.590396 C433.35481,201.232195 430.272979,200.250842 426.270294,200.250842 C422.450892,200.250842 419.54052,201.428466 417.379543,203.987365 C415.19935,206.544788 414.098168,209.887294 414.098168,214.405949 C414.098168,223.261745 418.276747,227.796633 426.814233,227.796633 C430.632157,227.796633 433.903184,226.412407 436.62436,224.063061 L440.256043,231.915367 C437.348627,233.689183 434.807779,234.883041 432.643846,235.266728 C430.632157,235.85554 427.897678,236.042957 424.988784,236.042957 C418.457075,236.042957 413.200964,234.095006 409.390431,230.355531 C405.568073,226.412407 403.755927,221.099815 403.755927,214.405949 C403.755927,207.734218 405.755791,202.229782 409.913677,198.273377 C414.098168,194.147263 419.913,192.184556 426.998995,192.184556 C432.08956,192.184556 436.265183,193.562878 439.899822,196.312145 M481.118023,198.083009 C484.745271,201.633591 486.573677,207.127697 486.573677,213.827466 C486.573677,220.699895 484.745271,226.015439 480.937695,229.949708 C477.30749,234.095006 472.388384,236.042957 466.048828,236.042957 C459.508251,236.042957 454.416208,234.095006 450.970765,229.949708 C447.336126,226.015439 445.522501,220.524284 445.522501,213.827466 C445.522501,207.332822 447.336126,202.229782 451.146659,198.273377 C454.960148,194.147263 459.867428,192.184556 466.048828,192.184556 C472.580537,192.184556 477.483383,194.147263 481.118023,198.083009 M532.156697,193.366607 C534.333933,192.569719 536.515603,192.184556 538.868733,192.184556 C543.604554,192.184556 547.230325,193.562878 549.955935,196.11735 C552.490871,198.882849 553.95123,202.412772 553.95123,207.127697 L553.95123,235.266728 L543.956341,235.266728 L543.956341,208.50602 C543.956341,203.008962 541.422884,200.250842 536.326407,200.250842 C534.879351,200.250842 533.429338,200.644859 531.971935,201.633591 C530.699293,202.412772 529.794698,203.401504 529.061562,204.567323 L529.061562,235.266728 L519.25587,235.266728 L519.25587,207.127697 C519.25587,204.967243 518.531603,203.202282 517.269308,202.024657 C515.998145,200.836702 514.163827,200.250842 511.819566,200.250842 C510.538056,200.250842 509.092478,200.644859 507.627684,201.633591 C506.195409,202.601664 505.094227,203.590396 504.369959,204.567323 L504.369959,235.266728 L494.562789,235.266728 L494.562789,192.978493 L501.292562,192.978493 L503.457974,196.709113 C506.195409,193.562878 509.630505,192.184556 514.163827,192.184556 C519.792419,192.184556 523.979866,193.770955 526.897629,196.709113 C528.154011,195.323412 529.794698,194.147263 532.156697,193.366607 M365.430361,219.14301 C365.430361,212.449144 370.331729,207.127697 376.320977,207.127697 C382.144677,207.127697 387.051958,212.449144 387.051958,219.14301 C387.051958,225.624373 382.144677,230.931062 376.320977,230.931062 C370.331729,230.931062 365.430361,225.624373 365.430361,219.14301 M352.717253,194.337631 L352.717253,234.28685 C352.717253,239.403171 356.719938,243.533712 361.430632,243.533712 L567.212713,243.533712 C571.926363,243.533712 575.924614,239.403171 575.924614,234.28685 L575.924614,194.337631 C575.924614,189.246397 571.926363,184.898926 567.212713,184.898926 L361.430632,184.898926 C356.719938,184.898926 352.717253,189.246397 352.717253,194.337631" id="Fill-1" fill="#0076BD"></path>
                <path d="M668.518399,144.733018 C667.405392,148.161116 666.296819,151.602495 664.970967,154.956807 C664.832026,155.316883 663.464786,158.953057 663.256375,158.920591 C663.148474,158.892553 663.030226,158.863038 662.923803,158.839427 C661.167824,158.463118 659.400021,158.091237 657.648477,157.719355 C650.636386,156.236256 643.634643,154.728071 636.624031,153.247923 C630.418982,151.924202 624.210976,150.604909 618.004449,149.288566 C617.841858,145.909167 617.841858,142.54305 617.705873,139.163651 C617.550673,135.726699 618.034011,132.314834 617.997058,128.886736 C628.973403,131.379227 639.946792,133.883524 650.924615,136.371588 C657.202091,137.807464 663.489914,139.244815 669.76739,140.662982 C669.334308,142.007363 668.917485,143.367977 668.518399,144.733018 M620.489129,103.523535 C622.0027,96.1995362 623.163006,88.8238872 624.917506,81.55449 C625.794018,77.90651 626.890765,74.342646 628.048115,70.7876363 C628.306782,69.961233 630.844674,61.7562294 631.106297,61.8137824 C636.202774,62.9618927 641.280035,64.1188572 646.380946,65.2581131 C652.692419,66.6807073 659.023106,68.1077286 665.343447,69.5332742 L619.908237,107.878385 C620.095955,106.420374 620.292542,104.965314 620.489129,103.523535 M639.442761,42.6899258 C642.848296,36.8593558 646.212443,31.1055231 651.100509,26.377316 C654.88148,22.7293359 660.742133,18.8673765 665.769139,22.5861911 C670.074834,25.7648921 672.432398,31.6249766 674.096735,36.4919015 C676.328661,42.952604 677.605736,50.0419633 678.220624,56.8288 C664.540841,53.56008 650.797499,50.5569896 637.085197,47.4387931 C637.873023,45.8538697 638.669717,44.2718978 639.442761,42.6899258 M632.059669,115.556557 L679.15626,73.2358559 C679.230164,81.8614398 678.967063,90.5003052 677.997432,99.0653846 C677.024844,107.695396 675.472843,116.288514 673.696171,124.779807 C662.215795,122.23419 650.744288,119.700379 639.271302,117.150334 C636.869395,116.627929 634.45862,116.092243 632.059669,115.556557 M666.083974,0.882775756 C655.691477,-1.32342577 646.848025,4.85098707 640.666625,12.6236048 C633.5422,21.5694199 628.818203,32.4705642 624.979586,43.1400205 C619.884588,57.2951275 616.294291,72.0464255 613.511035,86.8183836 C610.646484,102.002068 608.874246,117.399731 608.367259,132.85052 C608.113027,140.471139 608.124851,148.137505 608.559412,155.749269 C608.779648,159.521209 609.135869,163.279868 609.675375,167.022295 C609.934042,168.809392 610.240008,170.590586 610.605097,172.36145 C610.7736,173.246882 610.961319,174.129363 611.174165,175.004465 C611.366317,175.203687 612.194051,174.930679 612.405419,174.877553 C619.019901,173.46824 626.181279,173.14063 632.93618,173.60253 C640.187722,174.089518 646.896802,176.29572 653.20384,179.895001 C654.72628,180.761249 656.220635,181.685049 657.66917,182.666403 C658.418565,183.185857 659.154657,183.712689 659.87449,184.251327 C660.54259,184.730936 661.065836,185.383204 661.794537,185.747707 C663.705716,182.719529 665.405527,179.596905 666.951616,176.372457 C670.061531,169.925036 672.54769,163.198704 674.813612,156.414819 C679.627772,142.125421 683.297886,127.489229 685.87273,112.631679 C688.500786,97.52916 690.185816,82.2288941 690.664719,66.9138711 C691.087455,53.9039228 690.649938,40.5899761 687.563673,27.8987834 C684.787807,16.386691 678.834034,3.596625 666.083974,0.882775756" id="Fill-3" fill="#0076BD"></path>
                <path d="M107.33346,174.092174 L14.5311673,174.092174 C10.5329161,174.092174 7.07860441,172.727133 4.17710087,169.97344 C1.44853463,167.210892 0,164.060229 0,160.52588 C0,156.573901 1.63773099,151.469385 5.08465216,144.985071 L71.5546543,17.3057695 L36.6878346,17.3057695 C27.7882153,17.3057695 21.6082936,18.8788871 18.3461345,21.8377059 C15.0721506,24.7832431 13.2600042,30.6831721 13.0767202,39.9270827 L2.00134274,39.9270827 L2.00134274,0 L85.1782703,0 C97.711051,0 104.065388,5.11632154 104.065388,15.1438395 C104.065388,18.093804 103.165227,21.6325808 101.156494,25.3720555 L32.5092557,156.978249 L107.33346,156.978249 L107.33346,174.092174 Z" id="Fill-6" fill="#231F1F"></path>
                <path d="M168.436584,144.694791 L168.436584,120.692204 C149.355836,121.860974 139.731949,128.954761 139.731949,142.329212 C139.731949,152.945542 143.366588,158.449978 150.638823,158.449978 C158.440217,158.449978 164.252093,153.745383 168.436584,144.694791 L168.436584,144.694791 Z M195.126574,159.838631 L182.411987,159.838631 C176.972592,159.838631 172.431879,161.199245 168.973133,164.166918 C162.074856,169.482462 158.626457,172.436853 158.259889,172.633124 C153.899504,175.382391 148.817808,176.756286 143.186261,176.756286 C134.107791,176.756286 126.480813,173.801894 120.306804,167.90049 C114.126882,162.004988 111.040617,154.923007 111.040617,146.648645 C111.040617,122.461592 130.28839,109.278985 168.436584,107.317753 L168.436584,96.2970753 C168.436584,85.6851722 167.699014,78.009952 165.886867,73.2714148 C164.252093,68.5505862 161.171739,66.2012399 156.988726,66.2012399 C152.814581,66.2012399 149.901253,68.1713262 148.638959,72.495186 C148.457153,72.6899811 147.728451,77.2145389 146.457288,85.6851722 C145.181691,94.1277668 140.098517,98.6626546 130.835286,98.6626546 L116.128225,83.5070093 C116.488881,74.271953 120.306804,66.7974308 127.56278,61.2782377 C135.021255,55.577531 144.822513,52.8282644 157.170532,52.8282644 C170.97891,52.8282644 180.77869,56.362614 186.589088,63.0594318 C192.220636,69.9362874 195.126574,81.5339716 195.126574,97.6783493 L195.126574,159.838631 Z" id="Fill-8" fill="#231F1F"></path>
                <path d="M235.17255,123.659877 C235.17255,147.646231 241.711649,159.456419 254.606563,159.456419 C267.133432,159.456419 273.314831,144.31258 273.314831,114.200511 C273.314831,85.301485 267.324106,70.7302248 255.14459,70.7302248 C246.976629,70.7302248 240.257202,78.800938 235.17255,95.1224021 L235.17255,123.659877 Z M209.017631,74.2734287 L212.473421,74.2734287 C214.102283,74.4770781 215.194597,74.4770781 215.742971,74.4770781 C223.185187,74.4770781 228.092467,73.4883457 230.826946,71.5197351 C235.357312,67.3832917 240.075396,63.2601297 244.97972,58.9333184 C250.2447,54.7983507 256.23986,52.8282644 262.956331,52.8282644 C275.131412,52.8282644 284.755299,58.1482353 291.833903,69.15268 C298.91103,80.1733576 302.556016,95.3260515 302.556016,114.801129 C302.556016,134.876826 298.738092,150.413207 291.289964,161.433884 C283.843313,172.250912 273.314831,177.749446 259.874499,177.749446 C249.700761,177.749446 241.523931,173.615954 235.17255,165.561473 L235.17255,212.37279 C235.17255,216.504806 233.904343,219.860594 231.539388,222.614288 C229.002975,225.367981 225.913753,226.733022 222.283548,226.733022 C218.464146,226.733022 215.373446,225.367981 212.834077,222.422444 C210.29175,219.664323 209.017631,216.312963 209.017631,212.37279 L209.017631,74.2734287 Z" id="Fill-10" fill="#231F1F"></path>
                <path d="M339.679887,123.659877 C339.679887,147.646231 346.040137,159.456419 359.103554,159.456419 C371.637813,159.456419 377.811822,144.31258 377.811822,114.200511 C377.811822,85.301485 371.637813,70.7302248 359.473078,70.7302248 C351.308073,70.7302248 344.767496,78.800938 339.679887,95.1224021 L339.679887,123.659877 Z M313.526447,74.2734287 L316.970412,74.2734287 C318.429293,74.4770781 319.515694,74.4770781 320.245874,74.4770781 C327.689568,74.4770781 332.593892,73.4883457 335.320981,71.5197351 C339.851347,67.3832917 344.587168,63.2601297 349.297862,58.9333184 C354.753516,54.7983507 360.748676,52.8282644 367.450365,52.8282644 C379.451031,52.8282644 389.079352,58.1482353 396.165347,69.15268 C403.24543,80.1733576 406.690873,95.3260515 406.690873,114.801129 C406.690873,134.876826 403.056233,150.413207 395.612539,161.433884 C387.987039,172.250912 377.811822,177.749446 364.383315,177.749446 C354.202186,177.749446 346.040137,173.615954 339.679887,165.561473 L339.679887,212.37279 C339.679887,216.504806 338.41168,219.860594 335.861964,222.614288 C333.501444,225.367981 330.415178,226.733022 326.609079,226.733022 C322.968528,226.733022 319.882262,225.367981 317.338458,222.422444 C314.799088,219.664323 313.526447,216.312963 313.526447,212.37279 L313.526447,74.2734287 Z" id="Fill-12" fill="#231F1F"></path>
                <path d="M481.785567,125.812953 C481.785567,107.502218 481.237193,95.3009643 480.329642,89.8083341 C477.9706,74.2734287 472.15429,66.3989864 463.262061,66.3989864 C456.35196,66.3989864 451.453548,70.3288289 448.54761,78.3921635 C445.641672,86.2666059 444.185747,98.6641303 444.185747,115.773629 C444.185747,132.285461 445.641672,144.103028 448.191388,151.376852 C451.088458,159.254246 455.979479,163.189991 463.077299,163.189991 C475.420883,163.189991 481.785567,150.796894 481.785567,125.812953 M507.946398,115.773629 C507.946398,156.304281 492.860944,176.756286 463.077299,176.756286 C433.108891,176.756286 418.035262,156.304281 418.035262,115.773629 C418.035262,73.8720329 433.108891,52.8282644 463.077299,52.8282644 C476.870896,52.8282644 487.77777,58.3356518 495.951644,69.5363673 C503.927453,80.5570449 507.946398,96.1022803 507.946398,115.773629" id="Fill-14" fill="#231F1F"></path>
                <path d="M571.578361,83.508485 C571.578361,73.0884255 565.940901,67.972104 554.677805,67.972104 C545.056874,67.972104 540.344703,71.9034223 540.344703,80.165979 C540.344703,85.2867278 545.424921,90.9815316 555.586834,97.679825 C560.678877,100.82606 566.675515,104.953649 573.575269,109.668575 C582.837022,118.536177 587.561019,129.164313 587.561019,141.154539 C587.561019,151.574598 584.102273,160.228221 577.205475,166.733195 C570.30572,173.217509 561.4061,176.356366 550.332201,176.356366 C540.516162,176.356366 532.531484,174.60321 526.367822,170.85193 C520.183466,167.118358 516.905047,162.401957 516.905047,157.093791 C516.905047,153.746858 519.267046,152.166362 523.991042,152.166362 C525.26664,152.166362 526.53189,152.166362 527.44092,152.362633 C534.70133,157.689982 541.429626,160.43187 547.597722,160.43187 C557.956223,160.43187 563.221203,156.305757 563.221203,148.031394 C563.221203,143.502409 561.222817,139.584373 557.229,135.837519 C555.586834,134.072558 550.332201,130.333083 541.429626,124.232457 C532.531484,118.139208 526.175669,112.622967 522.536595,107.714722 C518.174732,102.002209 516.012277,95.3009643 516.012277,87.6390256 C516.012277,76.6272023 519.439983,68.1728019 526.53189,62.0677479 C533.431645,55.9671211 543.24325,52.8282644 556.144077,52.8282644 C561.94265,52.8282644 570.30572,54.3895763 581.020442,57.5564716 L581.020442,83.508485 L571.578361,83.508485 Z" id="Fill-16" fill="#231F1F"></path>
                <path d="M624.509906,247.260476 C609.554525,245.259399 599.113251,231.185457 601.188499,215.870434 C603.251921,200.525896 617.04404,189.731004 631.990553,191.743886 C646.959237,193.75972 657.403467,207.799721 655.345956,223.123598 C653.279577,238.475514 639.481546,249.271882 624.509906,247.260476 Z" id="Fill-18" fill="#0076BD"></path>
            </g>
        </g>
    </g>
</svg>
